<svg version="1.2" xmlns="http://www.w3.org/2000/svg" viewBox="0 0 71 78" width="71" height="78"><style>.a{opacity:.1;fill:#fff}</style><path fill-rule="evenodd" class="a" d="m71 26v25.5c0 4.7-2.5 9.1-6.5 11.4l-22.2 12.8c-4 2.3-9 2.3-13.1 0l-22.1-12.8c-4.1-2.3-6.6-6.7-6.6-11.4v-25.5c0-4.7 2.5-9 6.6-11.4l22.1-12.8c4.1-2.3 9.1-2.3 13.1 0l22.2 12.8c4 2.4 6.5 6.7 6.5 11.4zm-41 24.6c-0.4-0.7-1.2-1.1-2-1.1q-0.6 0-1.1 0.3l-6.8 3.9c-1.1 0.6-1.5 2.1-0.9 3.2 0.7 1.1 2.1 1.4 3.2 0.8l6.8-3.9c1.1-0.6 1.4-2.1 0.8-3.2zm-0.8-26.9l-6.8-3.9c-1.1-0.6-2.5-0.2-3.2 0.9-0.6 1.1-0.2 2.5 0.9 3.1l6.8 3.9q0.5 0.4 1.1 0.3c0.8 0 1.6-0.4 2-1.1 0.6-1.1 0.3-2.5-0.8-3.2zm9.2 22.1v-14.1l13.7-7.9c1.1-0.6 1.4-2 0.8-3.1-0.6-1.1-2-1.5-3.1-0.9l-14.9 8.6c-0.7 0.4-1.1 1.2-1.1 2v16.7c0 0.9 0.4 1.6 1.1 2l14.9 8.6q0.5 0.3 1.1 0.3c0.8 0 1.6-0.4 2-1.1 0.6-1.1 0.3-2.6-0.8-3.2z"/></svg>