<svg version="1.2" xmlns="http://www.w3.org/2000/svg" viewBox="0 0 177 46" width="177" height="46"><defs><linearGradient id="P" gradientUnits="userSpaceOnUse"/><linearGradient id="g1" x1="-11.8" y1="21.5" x2="19.5" y2="-9.8" href="#P"><stop stop-color="#474ba7"/><stop offset="1" stop-color="#d64da6"/></linearGradient></defs><style>.a{fill:#140045}.b{fill:url(#g1)}.c{fill:#fff}</style><path class="a" d="m62 23.5l6 9.6h-3.6l-4.3-7-4 7h-3.5l5.9-9.6-6-9.6h3.6l4.3 7 4.1-7h3.5z"/><path class="a" d="m69 21.3q1-1.7 2.7-2.7 1.6-0.9 3.8-0.9 2.8-0.1 4.6 1.3 1.8 1.3 2.4 3.7h-3.4q-0.4-1.1-1.3-1.8-0.9-0.6-2.3-0.6-1.9 0-3 1.4-1.2 1.3-1.2 3.8 0 2.4 1.2 3.8 1.1 1.4 3 1.4 2.7 0 3.6-2.4h3.4q-0.7 2.3-2.5 3.6-1.8 1.4-4.5 1.4-2.2 0-3.8-1-1.7-1-2.7-2.7-0.9-1.8-0.9-4.1 0-2.4 0.9-4.2z"/><path class="a" d="m95.3 18.4q1.4 0.7 2.2 2.2 0.7 1.5 0.7 3.5v9h-3.1v-8.5q0-2.1-1-3.1-1-1.1-2.8-1.1-1.7 0-2.8 1.1-1 1-1 3.1v8.5h-3.1v-20.4h3.1v7q0.8-1 2-1.5 1.3-0.5 2.7-0.5 1.7 0 3.1 0.7z"/><path fill-rule="evenodd" class="a" d="m101.5 21.4q0.9-1.8 2.6-2.8 1.6-0.9 3.6-0.9 1.8-0.1 3.1 0.7 1.4 0.7 2.2 1.7v-2.2h3.1v15.2h-3.1v-2.3q-0.8 1.1-2.2 1.8-1.4 0.7-3.2 0.7-1.9 0-3.5-1-1.7-1-2.6-2.8-1-1.8-1-4.1 0-2.3 1-4zm10.8 1.3q-0.6-1.1-1.7-1.7-1-0.6-2.2-0.6-1.3 0-2.3 0.6-1 0.6-1.7 1.7-0.6 1.1-0.6 2.7 0 1.6 0.6 2.8 0.7 1.1 1.7 1.8 1.1 0.6 2.3 0.6 1.2 0 2.2-0.6 1.1-0.6 1.7-1.8 0.7-1.2 0.7-2.7 0-1.6-0.7-2.8z"/><path class="a" d="m130.4 18.4q1.4 0.7 2.2 2.2 0.8 1.5 0.8 3.5v9h-3.1v-8.5q0-2.1-1-3.1-1.1-1.1-2.8-1.1-1.8 0-2.8 1.1-1 1-1 3.1v8.5h-3.2v-15.2h3.2v1.7q0.7-0.9 1.9-1.4 1.2-0.5 2.6-0.5 1.8 0 3.2 0.7z"/><path class="a" d="m140.1 20.5v8.3q0 0.9 0.4 1.3 0.4 0.3 1.4 0.3h1.9v2.7h-2.5q-2.1 0-3.2-1-1.2-1-1.2-3.3v-8.3h-1.7v-2.6h1.7v-3.8h3.2v3.8h3.7v2.6z"/><path fill-rule="evenodd" class="a" d="m159.5 26.6h-11.6q0.2 1.9 1.4 3 1.2 1.1 3 1.1 2.5 0 3.5-2.2h3.4q-0.7 2.1-2.5 3.5-1.8 1.3-4.4 1.3-2.2 0-3.9-1-1.8-1-2.7-2.7-1-1.8-1-4.1 0-2.4 0.9-4.2 1-1.7 2.7-2.7 1.7-0.9 4-0.9 2.1 0 3.8 0.9 1.7 0.9 2.6 2.6 0.9 1.7 0.9 3.9 0 0.9-0.1 1.5zm-3.1-2.5q-0.1-1.7-1.3-2.8-1.2-1-3-1-1.6 0-2.8 1-1.1 1.1-1.3 2.8z"/><path fill-rule="evenodd" class="a" d="m162.1 21.4q1-1.8 2.6-2.8 1.6-0.9 3.6-0.9 1.5 0 3 0.6 1.4 0.6 2.3 1.7v-7.3h3.1v20.4h-3.1v-2.3q-0.8 1.1-2.2 1.8-1.3 0.7-3.1 0.7-2 0-3.6-1-1.6-1-2.6-2.8-0.9-1.8-0.9-4.1 0-2.3 0.9-4zm10.8 1.3q-0.6-1.1-1.7-1.7-1-0.6-2.2-0.6-1.2 0-2.3 0.6-1 0.6-1.7 1.7-0.6 1.1-0.6 2.7 0 1.6 0.6 2.8 0.7 1.1 1.7 1.8 1.1 0.6 2.3 0.6 1.2 0 2.2-0.6 1.1-0.6 1.7-1.8 0.7-1.2 0.7-2.7 0-1.6-0.7-2.8z"/><path class="b" d="m38.1 37.1l-13 7.5c-2.4 1.4-5.3 1.4-7.7 0l-12.9-7.5c-2.4-1.3-3.9-3.9-3.9-6.6v-15c0-2.7 1.5-5.3 3.9-6.6l12.9-7.5c2.4-1.4 5.3-1.4 7.7 0l13 7.5c2.3 1.3 3.8 3.9 3.8 6.6v15c0 2.7-1.5 5.3-3.8 6.6z"/><path class="c" d="m30.1 34.3q-0.3 0-0.6-0.2l-8.7-5c-0.4-0.3-0.7-0.7-0.7-1.2v-9.8c0-0.5 0.3-0.9 0.7-1.2l8.7-5c0.6-0.4 1.4-0.1 1.8 0.5 0.4 0.7 0.2 1.5-0.5 1.9l-8 4.6v8.2l8 4.6c0.7 0.4 0.9 1.2 0.5 1.9-0.2 0.4-0.7 0.7-1.2 0.7z"/><path class="c" d="m16.7 16.7q-0.3 0-0.6-0.2l-4-2.2c-0.7-0.4-0.9-1.2-0.5-1.9 0.4-0.6 1.2-0.9 1.8-0.5l4 2.3c0.6 0.4 0.9 1.2 0.5 1.8-0.3 0.5-0.7 0.7-1.2 0.7z"/><path class="c" d="m17.9 30c0.4 0.6 0.1 1.4-0.5 1.8l-4 2.3c-0.6 0.4-1.4 0.1-1.8-0.5-0.4-0.7-0.2-1.5 0.5-1.9l4-2.2q0.3-0.2 0.6-0.2c0.5 0 0.9 0.2 1.2 0.7z"/></svg>