<svg version="1.2" xmlns="http://www.w3.org/2000/svg" viewBox="0 0 39 11" width="39" height="11"><style>.a{fill:#fff}</style><path class="a" d="m13.4 5.9l1.3 2.1h-0.7l-1-1.5-0.9 1.5h-0.8l1.3-2.1-1.3-2.1h0.8l1 1.5 0.9-1.5h0.7z"/><path class="a" d="m15 5.4q0.2-0.4 0.6-0.6 0.3-0.2 0.8-0.2 0.6 0 1 0.3 0.4 0.3 0.6 0.8h-0.8q-0.1-0.3-0.3-0.4-0.2-0.1-0.5-0.1-0.4 0-0.7 0.3-0.2 0.3-0.2 0.8 0 0.6 0.2 0.9 0.3 0.3 0.7 0.3 0.6 0 0.8-0.6h0.8q-0.2 0.5-0.6 0.8-0.4 0.3-1 0.3-0.5 0-0.8-0.2-0.4-0.2-0.6-0.6-0.2-0.4-0.2-0.9 0-0.5 0.2-0.9z"/><path class="a" d="m20.8 4.7q0.3 0.2 0.5 0.5 0.1 0.4 0.1 0.8v2h-0.6v-1.9q0-0.4-0.3-0.7-0.2-0.2-0.6-0.2-0.4 0-0.6 0.2-0.2 0.3-0.2 0.7v1.9h-0.7v-4.5h0.7v1.5q0.1-0.2 0.4-0.3 0.3-0.1 0.6-0.1 0.4 0 0.7 0.1z"/><path fill-rule="evenodd" class="a" d="m22.2 5.4q0.2-0.4 0.5-0.6 0.4-0.2 0.8-0.2 0.4 0 0.7 0.1 0.3 0.2 0.5 0.4v-0.5h0.7v3.4h-0.7v-0.5q-0.2 0.2-0.5 0.4-0.3 0.1-0.7 0.1-0.4 0-0.8-0.2-0.3-0.2-0.5-0.6-0.2-0.4-0.2-0.9 0-0.5 0.2-0.9zm2.4 0.3q-0.2-0.2-0.4-0.4-0.2-0.1-0.5-0.1-0.3 0-0.5 0.1-0.2 0.1-0.4 0.4-0.1 0.3-0.1 0.6 0 0.3 0.1 0.6 0.2 0.3 0.4 0.4 0.2 0.1 0.5 0.1 0.3 0 0.5-0.1 0.2-0.1 0.4-0.4 0.1-0.2 0.1-0.6 0-0.3-0.1-0.6z"/><path class="a" d="m28.6 4.7q0.3 0.2 0.5 0.5 0.1 0.4 0.1 0.8v2h-0.7v-1.9q0-0.4-0.2-0.7-0.2-0.2-0.6-0.2-0.4 0-0.6 0.2-0.2 0.3-0.2 0.7v1.9h-0.7v-3.4h0.7v0.4q0.1-0.2 0.4-0.3 0.3-0.1 0.6-0.1 0.4 0 0.7 0.1z"/><path class="a" d="m30.7 5.2v1.9q0 0.2 0.1 0.2 0.1 0.1 0.3 0.1h0.4v0.6h-0.5q-0.5 0-0.7-0.2-0.3-0.2-0.3-0.7v-1.9h-0.4v-0.6h0.4v-0.8h0.7v0.8h0.8v0.6z"/><path fill-rule="evenodd" class="a" d="m35 6.6h-2.5q0 0.4 0.3 0.6 0.2 0.3 0.6 0.3 0.6 0 0.8-0.5h0.8q-0.2 0.5-0.6 0.8-0.4 0.2-1 0.2-0.5 0-0.8-0.2-0.4-0.2-0.6-0.6-0.3-0.4-0.3-0.9 0-0.5 0.3-0.9 0.2-0.4 0.5-0.6 0.4-0.2 0.9-0.2 0.5 0 0.9 0.2 0.3 0.2 0.5 0.6 0.3 0.3 0.3 0.8 0 0.2-0.1 0.4zm-0.7-0.6q0-0.4-0.2-0.6-0.3-0.2-0.7-0.2-0.4 0-0.6 0.2-0.3 0.2-0.3 0.6z"/><path fill-rule="evenodd" class="a" d="m35.6 5.4q0.2-0.4 0.6-0.6 0.3-0.2 0.8-0.2 0.3 0 0.6 0.1 0.4 0.2 0.5 0.4v-1.6h0.7v4.5h-0.7v-0.5q-0.1 0.2-0.4 0.4-0.3 0.1-0.7 0.1-0.5 0-0.8-0.2-0.4-0.2-0.6-0.6-0.2-0.4-0.2-0.9 0-0.5 0.2-0.9zm2.4 0.3q-0.1-0.2-0.4-0.4-0.2-0.1-0.5-0.1-0.2 0-0.5 0.1-0.2 0.1-0.3 0.4-0.2 0.3-0.2 0.6 0 0.3 0.2 0.6 0.1 0.3 0.3 0.4 0.3 0.1 0.5 0.1 0.3 0 0.5-0.1 0.3-0.1 0.4-0.4 0.1-0.2 0.1-0.6 0-0.3-0.1-0.6z"/><path fill-rule="evenodd" class="a" d="m9.3 4.1v3.3c0 0.6-0.3 1.2-0.8 1.5l-2.9 1.7c-0.5 0.3-1.2 0.3-1.7 0l-2.9-1.7c-0.5-0.3-0.8-0.9-0.8-1.5v-3.3c0-0.6 0.3-1.2 0.8-1.5l2.9-1.6c0.5-0.3 1.2-0.3 1.7 0l2.9 1.6c0.5 0.3 0.8 0.9 0.8 1.5zm-5.3 3.2q-0.1-0.1-0.3-0.1 0 0-0.1 0l-0.9 0.5c-0.1 0.1-0.2 0.3-0.1 0.4 0.1 0.2 0.3 0.2 0.4 0.1l0.9-0.5c0.1-0.1 0.2-0.2 0.1-0.4zm-0.1-3.5l-0.9-0.5c-0.1-0.1-0.3 0-0.4 0.1-0.1 0.2 0 0.3 0.1 0.4l0.9 0.5q0.1 0.1 0.1 0.1 0.2 0 0.3-0.2c0.1-0.1 0-0.3-0.1-0.4zm1.2 2.9v-1.8l1.8-1.1c0.1-0.1 0.1-0.2 0.1-0.4-0.1-0.1-0.3-0.2-0.4-0.1l-2 1.1q-0.1 0.1-0.1 0.3v2.2q0 0.1 0.1 0.2l2 1.1q0 0.1 0.1 0.1 0.2 0 0.3-0.2c0-0.1 0-0.3-0.1-0.4z"/></svg>